{"asset":{"version":"2.0","generator":"THREE.GLTFExporter"},"scenes":[{"nodes":[0,1,2,3,4,31],"name":"digimedical"}],"scene":0,"nodes":[{"rotation":[0.35355339059327384,0.6123724356957946,-0.35355339059327384,0.6123724356957946],"translation":[0,10,0],"name":"Sun","extensions":{"HUBS_components":{"directional-light":{"color":"white","intensity":1,"castShadow":true}}}},{"name":"Skybox","extensions":{"HUBS_components":{"skybox":{"turbidity":10,"rayleigh":2,"luminance":1,"mieCoefficient":0.005,"mieDirectionalG":0.8,"inclination":0,"azimuth":0.15,"distance":8000}}}},{"translation":[0,10,0],"name":"Ambient Light","extensions":{"HUBS_components":{"ambient-light":{"color":"white","intensity":1}}}},{"translation":[157,-395,221],"name":"Spawn Point","extensions":{"HUBS_components":{"spawn-point":{}}}},{"name":"Nav Mesh","extensions":{"HUBS_components":{"visible":{"visible":false},"nav-mesh":{},"heightfield":{}}}},{"name":"Ship_rug_0","mesh":0},{"name":"Ship_wood_trims_0","mesh":1},{"name":"Ship_wood_planks_0","mesh":2},{"name":"Ship_wood_painted_0","mesh":3},{"name":"Ship_sails_0","mesh":4},{"name":"Ship_building_mats_0","mesh":5},{"name":"Ship_emissive_0","mesh":6},{"name":"Ship_foliage_0","mesh":7},{"name":"Ship_foliage_02_0","mesh":8},{"name":"Ship_sand_caustics_0","mesh":9},{"name":"Ship_sand_tile_0","mesh":10},{"name":"Ship_rock_tile_0","mesh":11},{"name":"Ship_rocks_unique_0","mesh":12},{"name":"Ship_water_light_0","mesh":13},{"name":"Ship_bits_bobs_0","mesh":14},{"translation":[0,0.00008165721374098212,0],"name":"Ship","children":[5,6,7,8,9,10,11,12,13,14,15,16,17,18,19]},{"name":"sky_sky_0","mesh":15},{"translation":[0,0,9633.3212890625],"name":"node_0-0-5-0-0-0-0-0-1-0","children":[21]},{"translation":[0,0,595.6158447265625],"scale":[1.3289499282836914,1.3289499282836914,0.8719646334648132],"name":"sky","children":[22]},{"name":"No_Shad_emissive_0","mesh":16},{"translation":[0,0.00008165721374098212,0],"name":"No_Shad","children":[24]},{"name":"RootNode","children":[20,23,25]},{"rotation":[1,0,0,0],"name":"ShipFBX","children":[26]},{"rotation":[0,1,0,0],"translation":[0.1427582949399948,0,-22325.513671875],"name":"RootNode_(model_correction_matrix)","children":[27]},{"rotation":[-0.7071067811865475,0,0,0.7071067811865476],"name":"RootNode_(gltf_orientation_matrix)","children":[28]},{"name":"OSG_Scene","children":[29]},{"translation":[0,1701,0],"scale":[0.08,0.08,0.08],"name":"Tiki Treasure!","children":[30]}],"bufferViews":[{"buffer":0,"byteOffset":0,"byteLength":504,"target":34962,"byteStride":12},{"buffer":0,"byteOffset":504,"byteLength":504,"target":34962,"byteStride":12},{"buffer":0,"byteOffset":1008,"byteLength":336,"target":34962,"byteStride":8},{"buffer":0,"byteOffset":1344,"byteLength":708,"target":34963},{"buffer":0,"byteOffset":2052,"byteLength":76788,"target":34962,"byteStride":12},{"buffer":0,"byteOffset":78840,"byteLength":76788,"target":34962,"byteStride":12},{"buffer":0,"byteOffset":155628,"byteLength":51192,"target":34962,"byteStride":8},{"buffer":0,"byteOffset":206820,"byteLength":45768,"target":34963},{"buffer":0,"byteOffset":252588,"byteLength":47508,"target":34962,"byteStride":12},{"buffer":0,"byteOffset":300096,"byteLength":47508,"target":34962,"byteStride":12},{"buffer":0,"byteOffset":347604,"byteLength":31672,"target":34962,"byteStride":8},{"buffer":0,"byteOffset":379276,"byteLength":25224,"target":34963},{"buffer":0,"byteOffset":404500,"byteLength":8904,"target":34962,"byteStride":12},{"buffer":0,"byteOffset":413404,"byteLength":8904,"target":34962,"byteStride":12},{"buffer":0,"byteOffset":422308,"byteLength":5936,"target":34962,"byteStride":8},{"buffer":0,"byteOffset":428244,"byteLength":3744,"target":34963},{"buffer":0,"byteOffset":431988,"byteLength":3672,"target":34962,"byteStride":12},{"buffer":0,"byteOffset":435660,"byteLength":3672,"target":34962,"byteStride":12},{"buffer":0,"byteOffset":439332,"byteLength":2448,"target":34962,"byteStride":8},{"buffer":0,"byteOffset":441780,"byteLength":4584,"target":34963},{"buffer":0,"byteOffset":446364,"byteLength":18372,"target":34962,"byteStride":12},{"buffer":0,"byteOffset":464736,"byteLength":18372,"target":34962,"byteStride":12},{"buffer":0,"byteOffset":483108,"byteLength":12248,"target":34962,"byteStride":8},{"buffer":0,"byteOffset":495356,"byteLength":9576,"target":34963},{"buffer":0,"byteOffset":504932,"byteLength":17208,"target":34962,"byteStride":12},{"buffer":0,"byteOffset":522140,"byteLength":17208,"target":34962,"byteStride":12},{"buffer":0,"byteOffset":539348,"byteLength":11472,"target":34962,"byteStride":8},{"buffer":0,"byteOffset":550820,"byteLength":5952,"target":34963},{"buffer":0,"byteOffset":556772,"byteLength":34836,"target":34962,"byteStride":12},{"buffer":0,"byteOffset":591608,"byteLength":34836,"target":34962,"byteStride":12},{"buffer":0,"byteOffset":626444,"byteLength":23224,"target":34962,"byteStride":8},{"buffer":0,"byteOffset":649668,"byteLength":31680,"target":34963},{"buffer":0,"byteOffset":681348,"byteLength":29604,"target":34962,"byteStride":12},{"buffer":0,"byteOffset":710952,"byteLength":29604,"target":34962,"byteStride":12},{"buffer":0,"byteOffset":740556,"byteLength":19736,"target":34962,"byteStride":8},{"buffer":0,"byteOffset":760292,"byteLength":26880,"target":34963},{"buffer":0,"byteOffset":787172,"byteLength":2100,"target":34962,"byteStride":12},{"buffer":0,"byteOffset":789272,"byteLength":2100,"target":34962,"byteStride":12},{"buffer":0,"byteOffset":791372,"byteLength":1400,"target":34962,"byteStride":8},{"buffer":0,"byteOffset":792772,"byteLength":2484,"target":34963},{"buffer":0,"byteOffset":795256,"byteLength":2772,"target":34962,"byteStride":12},{"buffer":0,"byteOffset":798028,"byteLength":2772,"target":34962,"byteStride":12},{"buffer":0,"byteOffset":800800,"byteLength":1848,"target":34962,"byteStride":8},{"buffer":0,"byteOffset":802648,"byteLength":3948,"target":34963},{"buffer":0,"byteOffset":806596,"byteLength":3756,"target":34962,"byteStride":12},{"buffer":0,"byteOffset":810352,"byteLength":3756,"target":34962,"byteStride":12},{"buffer":0,"byteOffset":814108,"byteLength":2504,"target":34962,"byteStride":8},{"buffer":0,"byteOffset":816612,"byteLength":3600,"target":34963},{"buffer":0,"byteOffset":820212,"byteLength":8700,"target":34962,"byteStride":12},{"buffer":0,"byteOffset":828912,"byteLength":8700,"target":34962,"byteStride":12},{"buffer":0,"byteOffset":837612,"byteLength":5800,"target":34962,"byteStride":8},{"buffer":0,"byteOffset":843412,"byteLength":8280,"target":34963},{"buffer":0,"byteOffset":851692,"byteLength":10512,"target":34962,"byteStride":12},{"buffer":0,"byteOffset":862204,"byteLength":10512,"target":34962,"byteStride":12},{"buffer":0,"byteOffset":872716,"byteLength":7008,"target":34962,"byteStride":8},{"buffer":0,"byteOffset":879724,"byteLength":4692,"target":34963},{"buffer":0,"byteOffset":884416,"byteLength":559200,"target":34962,"byteStride":12},{"buffer":0,"byteOffset":1443616,"byteLength":559200,"target":34962,"byteStride":12},{"buffer":0,"byteOffset":2002816,"byteLength":372800,"target":34962,"byteStride":8},{"buffer":0,"byteOffset":2375616,"byteLength":339864,"target":34963},{"buffer":0,"byteOffset":2715480,"byteLength":3816,"target":34962,"byteStride":12},{"buffer":0,"byteOffset":2719296,"byteLength":3816,"target":34962,"byteStride":12},{"buffer":0,"byteOffset":2723112,"byteLength":2544,"target":34962,"byteStride":8},{"buffer":0,"byteOffset":2725656,"byteLength":6384,"target":34963},{"buffer":0,"byteOffset":2732040,"byteLength":384,"target":34962,"byteStride":12},{"buffer":0,"byteOffset":2732424,"byteLength":384,"target":34962,"byteStride":12},{"buffer":0,"byteOffset":2732808,"byteLength":256,"target":34962,"byteStride":8},{"buffer":0,"byteOffset":2733064,"byteLength":192,"target":34963}],"buffers":[{"byteLength":2733256,"uri":"scene.bin"}],"accessors":[{"bufferView":0,"componentType":5126,"count":42,"max":[0.4837416112422943,0.573657214641571,0.9891117811203003],"min":[-0.5953498482704163,-0.7090235352516174,0.7003956437110901],"type":"VEC3"},{"bufferView":1,"componentType":5126,"count":42,"max":[-282.5069580078125,1352.5810546875,2364.034912109375],"min":[-3121.31494140625,-3782.7900390625,1495.25927734375],"type":"VEC3"},{"bufferView":2,"componentType":5126,"count":42,"max":[1.0001693964004517,1.001355528831482],"min":[0,-0.0008571242797188461],"type":"VEC2"},{"bufferView":3,"componentType":5125,"count":177,"max":[41],"min":[0],"type":"SCALAR"},{"bufferView":4,"componentType":5126,"count":6399,"max":[1,0.9994327425956726,0.9995434284210205],"min":[-1,-0.9999496340751648,-0.9987429976463318],"type":"VEC3"},{"bufferView":5,"componentType":5126,"count":6399,"max":[7862.1220703125,7524.267578125,14324.8310546875],"min":[-6698.8984375,-5513.32958984375,845.8919677734375],"type":"VEC3"},{"bufferView":6,"componentType":5126,"count":6399,"max":[0.9974222779273987,1.6514744758605957],"min":[-2.7894575595855713,-3.2340641021728516],"type":"VEC2"},{"bufferView":7,"componentType":5125,"count":11442,"max":[6398],"min":[0],"type":"SCALAR"},{"bufferView":8,"componentType":5126,"count":3959,"max":[0.9999756813049316,0.9998654723167419,0.9961979389190674],"min":[-0.9999790191650391,-0.9993245601654053,-0.9955289363861084],"type":"VEC3"},{"bufferView":9,"componentType":5126,"count":3959,"max":[7609,7469.4404296875,11731.2607421875],"min":[-5995.49169921875,-5400.31396484375,520.5044555664062],"type":"VEC3"},{"bufferView":10,"componentType":5126,"count":3959,"max":[6.737779140472412,5.050417900085449],"min":[-7.640327453613281,-11.358654975891113],"type":"VEC2"},{"bufferView":11,"componentType":5125,"count":6306,"max":[3958],"min":[0],"type":"SCALAR"},{"bufferView":12,"componentType":5126,"count":742,"max":[0.999591052532196,0.9999114274978638,1],"min":[-0.9998491406440735,-0.9992859959602356,-1],"type":"VEC3"},{"bufferView":13,"componentType":5126,"count":742,"max":[7609,4266.59326171875,6371.9365234375],"min":[-5095.7568359375,-5747.701171875,623.1524658203125],"type":"VEC3"},{"bufferView":14,"componentType":5126,"count":742,"max":[1.0040996074676514,1.0013055801391602],"min":[-3.1256368160247803,0.0010302066802978516],"type":"VEC2"},{"bufferView":15,"componentType":5125,"count":936,"max":[741],"min":[0],"type":"SCALAR"},{"bufferView":16,"componentType":5126,"count":306,"max":[0.9998686909675598,0.9953978657722473,1],"min":[-0.9998686909675598,-0.9951976537704468,-0.5079379081726074],"type":"VEC3"},{"bufferView":17,"componentType":5126,"count":306,"max":[12514.4208984375,12978.6953125,14163.7626953125],"min":[-13646.134765625,-12873.1748046875,605.367431640625],"type":"VEC3"},{"bufferView":18,"componentType":5126,"count":306,"max":[0.9819663763046265,1.0014231204986572],"min":[0.006709001958370209,0.018818529322743416],"type":"VEC2"},{"bufferView":19,"componentType":5125,"count":1146,"max":[305],"min":[0],"type":"SCALAR"},{"bufferView":20,"componentType":5126,"count":1531,"max":[0.9995730519294739,0.997647225856781,0.9850654006004333],"min":[-0.9998472332954407,-0.9987142086029053,-0.9963862895965576],"type":"VEC3"},{"bufferView":21,"componentType":5126,"count":1531,"max":[4501.86376953125,7839.345703125,4596.60205078125],"min":[-5660.68505859375,-4589.849609375,1546.1529541015625],"type":"VEC3"},{"bufferView":22,"componentType":5126,"count":1531,"max":[0.9991875886917114,4.0963850021362305],"min":[-2.6986513137817383,0.0011581924045458436],"type":"VEC2"},{"bufferView":23,"componentType":5125,"count":2394,"max":[1530],"min":[0],"type":"SCALAR"},{"bufferView":24,"componentType":5126,"count":1434,"max":[0.9911249279975891,0.9911487102508545,1],"min":[-0.9911243319511414,-0.9911491274833679,-0.9001805186271667],"type":"VEC3"},{"bufferView":25,"componentType":5126,"count":1434,"max":[-885.219970703125,-103.328857421875,4602.01953125],"min":[-1573.933837890625,-3769.986328125,2632.576171875],"type":"VEC3"},{"bufferView":26,"componentType":5126,"count":1434,"max":[0.9946678876876831,0.9951028227806091],"min":[0.5599445104598999,0.6131845712661743],"type":"VEC2"},{"bufferView":27,"componentType":5125,"count":1488,"max":[1433],"min":[0],"type":"SCALAR"},{"bufferView":28,"componentType":5126,"count":2903,"max":[0.9971731901168823,0.9978016018867493,0.999264657497406],"min":[-0.9969257712364197,-0.9944354891777039,-0.9992414712905884],"type":"VEC3"},{"bufferView":29,"componentType":5126,"count":2903,"max":[7881.3671875,8188.193359375,6341.22998046875],"min":[-9278.8955078125,-5563.62939453125,579.7352905273438],"type":"VEC3"},{"bufferView":30,"componentType":5126,"count":2903,"max":[0.9963616728782654,0.9951114058494568],"min":[0.004408510401844978,0.0035207271575927734],"type":"VEC2"},{"bufferView":31,"componentType":5125,"count":7920,"max":[2902],"min":[0],"type":"SCALAR"},{"bufferView":32,"componentType":5126,"count":2467,"max":[0.9974870681762695,0.9999183416366577,0.999622106552124],"min":[-0.9984388947486877,-0.9996904134750366,-0.9996548891067505],"type":"VEC3"},{"bufferView":33,"componentType":5126,"count":2467,"max":[7974.3681640625,7137.2578125,5141.234375],"min":[-8346.111328125,-4418.4658203125,437.248291015625],"type":"VEC3"},{"bufferView":34,"componentType":5126,"count":2467,"max":[0.994066596031189,0.9946290254592896],"min":[0.006384421139955521,0.03351467847824097],"type":"VEC2"},{"bufferView":35,"componentType":5125,"count":6720,"max":[2466],"min":[0],"type":"SCALAR"},{"bufferView":36,"componentType":5126,"count":175,"max":[0.26776325702667236,0.2316073626279831,0.9998903870582581],"min":[-0.31875601410865784,-0.32344332337379456,0.941835343837738],"type":"VEC3"},{"bufferView":37,"componentType":5126,"count":175,"max":[16053.44921875,16053.44921875,595.615478515625],"min":[-16053.44921875,-16053.44921875,-113.49029541015625],"type":"VEC3"},{"bufferView":38,"componentType":5126,"count":175,"max":[7.03384256362915,1.5434561967849731],"min":[-11.24898910522461,-3.384660243988037],"type":"VEC2"},{"bufferView":39,"componentType":5125,"count":621,"max":[174],"min":[0],"type":"SCALAR"},{"bufferView":40,"componentType":5126,"count":231,"max":[0.4478105902671814,0.5879382491111755,0.9985133409500122],"min":[-0.4693271815776825,-0.7554238438606262,0.6488852500915527],"type":"VEC3"},{"bufferView":41,"componentType":5126,"count":231,"max":[8353.67578125,8275.0498046875,3006.576904296875],"min":[-8781.5712890625,-8460.6396484375,547.5993041992188],"type":"VEC3"},{"bufferView":42,"componentType":5126,"count":231,"max":[7.089730262756348,3.607172727584839],"min":[-6.329433917999268,-2.0613749027252197],"type":"VEC2"},{"bufferView":43,"componentType":5125,"count":987,"max":[230],"min":[0],"type":"SCALAR"},{"bufferView":44,"componentType":5126,"count":313,"max":[0.9903335571289062,0.9904997944831848,0.9921801686286926],"min":[-0.9940429925918579,-0.9995160698890686,-0.42682942748069763],"type":"VEC3"},{"bufferView":45,"componentType":5126,"count":313,"max":[-5809.814453125,1369.1519775390625,3082.8740234375],"min":[-8058.67041015625,-6420.06591796875,-36.6832275390625],"type":"VEC3"},{"bufferView":46,"componentType":5126,"count":313,"max":[1.0069258213043213,0.8981297016143799],"min":[0.005609006620943546,0.10187028348445892],"type":"VEC2"},{"bufferView":47,"componentType":5125,"count":900,"max":[312],"min":[0],"type":"SCALAR"},{"bufferView":48,"componentType":5126,"count":725,"max":[0.999640166759491,0.9933545589447021,0.9954478740692139],"min":[-0.9951602220535278,-0.9995288848876953,-0.6095526814460754],"type":"VEC3"},{"bufferView":49,"componentType":5126,"count":725,"max":[8282.806640625,3196.99560546875,2402.414306640625],"min":[-7918.2060546875,-7807.2265625,211.7403564453125],"type":"VEC3"},{"bufferView":50,"componentType":5126,"count":725,"max":[0.5665184855461121,1.009930968284607],"min":[0.02694295346736908,0.41836637258529663],"type":"VEC2"},{"bufferView":51,"componentType":5125,"count":2070,"max":[724],"min":[0],"type":"SCALAR"},{"bufferView":52,"componentType":5126,"count":876,"max":[9.9574083378684e-7,0.0000011845604603877291,1],"min":[-0.000001678267040006176,-0.000003724976750163478,1],"type":"VEC3"},{"bufferView":53,"componentType":5126,"count":876,"max":[16053.44921875,16053.44921875,595.6177978515625],"min":[-16053.4482421875,-16053.44921875,595.614501953125],"type":"VEC3"},{"bufferView":54,"componentType":5126,"count":876,"max":[1.5061933994293213,0.9993362426757812],"min":[-0.4776441156864166,0.03297269344329834],"type":"VEC2"},{"bufferView":55,"componentType":5125,"count":1173,"max":[875],"min":[0],"type":"SCALAR"},{"bufferView":56,"componentType":5126,"count":46600,"max":[1,0.9999773502349854,1],"min":[-1,-0.9999845623970032,-1],"type":"VEC3"},{"bufferView":57,"componentType":5126,"count":46600,"max":[13046.40625,12250.482421875,14389.9912109375],"min":[-13514.9609375,-11975.3564453125,-142.41766357421875],"type":"VEC3"},{"bufferView":58,"componentType":5126,"count":46600,"max":[0.9984301328659058,1],"min":[-2.6379597187042236,-2.5381579399108887],"type":"VEC2"},{"bufferView":59,"componentType":5125,"count":84966,"max":[46599],"min":[0],"type":"SCALAR"},{"bufferView":60,"componentType":5126,"count":318,"max":[1,1,0.5320324897766113],"min":[-1,-1,-1],"type":"VEC3"},{"bufferView":61,"componentType":5126,"count":318,"max":[15450.6455078125,15450.6455078125,15450.6455078125],"min":[-15450.6455078125,-15450.6455078125,-9633.322265625],"type":"VEC3"},{"bufferView":62,"componentType":5126,"count":318,"max":[1.000000238418579,0.997177243232727],"min":[0,0.0254592914134264],"type":"VEC2"},{"bufferView":63,"componentType":5125,"count":1596,"max":[317],"min":[0],"type":"SCALAR"},{"bufferView":64,"componentType":5126,"count":32,"max":[0.9941083788871765,0.9938480854034424,-0.10839153081178665],"min":[-0.9941083192825317,-0.9938480257987976,-0.1107528805732727],"type":"VEC3"},{"bufferView":65,"componentType":5126,"count":32,"max":[-964.4091796875,-182.994873046875,3863.22802734375],"min":[-1516.3125,-3711.0947265625,2932.19873046875],"type":"VEC3"},{"bufferView":66,"componentType":5126,"count":32,"max":[0.5528079867362976,0.98097825050354],"min":[0.014267027378082275,0.28375542163848877],"type":"VEC2"},{"bufferView":67,"componentType":5125,"count":48,"max":[31],"min":[0],"type":"SCALAR"}],"materials":[{"pbrMetallicRoughness":{"metallicFactor":0,"roughnessFactor":0.9,"baseColorTexture":{"index":0}},"extensions":{"KHR_materials_unlit":{}},"doubleSided":true,"name":"material_2"},{"pbrMetallicRoughness":{"metallicFactor":0,"roughnessFactor":0.9,"baseColorTexture":{"index":1}},"extensions":{"KHR_materials_unlit":{}},"name":"wood_trims"},{"pbrMetallicRoughness":{"metallicFactor":0,"roughnessFactor":0.9,"baseColorTexture":{"index":2}},"extensions":{"KHR_materials_unlit":{}},"name":"wood_planks"},{"pbrMetallicRoughness":{"metallicFactor":0,"roughnessFactor":0.9,"baseColorTexture":{"index":3}},"extensions":{"KHR_materials_unlit":{}},"name":"wood_painted"},{"pbrMetallicRoughness":{"metallicFactor":0,"roughnessFactor":0.9,"baseColorTexture":{"index":4}},"extensions":{"KHR_materials_unlit":{}},"alphaMode":"MASK","name":"sails"},{"pbrMetallicRoughness":{"metallicFactor":0,"roughnessFactor":0.9,"baseColorTexture":{"index":5}},"extensions":{"KHR_materials_unlit":{}},"name":"building_mats"},{"pbrMetallicRoughness":{"metallicFactor":0,"roughnessFactor":0.9,"baseColorTexture":{"index":6}},"extensions":{"KHR_materials_unlit":{}},"name":"emissive"},{"pbrMetallicRoughness":{"metallicFactor":0,"roughnessFactor":0.9,"baseColorTexture":{"index":7}},"extensions":{"KHR_materials_unlit":{}},"name":"foliage"},{"pbrMetallicRoughness":{"metallicFactor":0,"roughnessFactor":0.9,"baseColorTexture":{"index":8}},"extensions":{"KHR_materials_unlit":{}},"name":"foliage_02"},{"pbrMetallicRoughness":{"metallicFactor":0,"roughnessFactor":0.9,"baseColorTexture":{"index":9}},"extensions":{"KHR_materials_unlit":{}},"name":"sand_caustics"},{"pbrMetallicRoughness":{"metallicFactor":0,"roughnessFactor":0.9,"baseColorTexture":{"index":10}},"extensions":{"KHR_materials_unlit":{}},"name":"sand_tile"},{"pbrMetallicRoughness":{"metallicFactor":0,"roughnessFactor":0.9,"baseColorTexture":{"index":11}},"extensions":{"KHR_materials_unlit":{}},"name":"rock_tile"},{"pbrMetallicRoughness":{"metallicFactor":0,"roughnessFactor":0.9,"baseColorTexture":{"index":12}},"extensions":{"KHR_materials_unlit":{}},"name":"rocks_unique"},{"pbrMetallicRoughness":{"baseColorFactor":[1,1,1,0.74],"metallicFactor":0,"roughnessFactor":0.9,"baseColorTexture":{"index":13}},"extensions":{"KHR_materials_unlit":{}},"alphaMode":"BLEND","name":"water_light"},{"pbrMetallicRoughness":{"metallicFactor":0,"roughnessFactor":0.9,"baseColorTexture":{"index":14}},"extensions":{"KHR_materials_unlit":{}},"doubleSided":true,"name":"bits_bobs"},{"pbrMetallicRoughness":{"baseColorFactor":[0.93,0.93,0.93,1],"metallicFactor":0,"roughnessFactor":0.9,"baseColorTexture":{"index":15}},"extensions":{"KHR_materials_unlit":{}},"name":"material"},{"pbrMetallicRoughness":{"metallicFactor":0,"roughnessFactor":0.9,"baseColorTexture":{"index":6}},"extensions":{"KHR_materials_unlit":{}},"name":"emissive"}],"textures":[{"sampler":0,"source":0},{"sampler":1,"source":1},{"sampler":2,"source":2},{"sampler":3,"source":3},{"sampler":4,"source":4},{"sampler":5,"source":5},{"sampler":6,"source":6},{"sampler":7,"source":7},{"sampler":8,"source":8},{"sampler":9,"source":9},{"sampler":10,"source":10},{"sampler":11,"source":11},{"sampler":12,"source":12},{"sampler":13,"source":13},{"sampler":14,"source":14},{"sampler":15,"source":15}],"samplers":[{"magFilter":9729,"minFilter":9987},{"magFilter":9729,"minFilter":9987},{"magFilter":9729,"minFilter":9987},{"magFilter":9729,"minFilter":9987},{"magFilter":9729,"minFilter":9987},{"magFilter":9729,"minFilter":9987},{"magFilter":9729,"minFilter":9987},{"magFilter":9729,"minFilter":9987},{"magFilter":9729,"minFilter":9987},{"magFilter":9729,"minFilter":9987},{"magFilter":9729,"minFilter":9987},{"magFilter":9729,"minFilter":9987},{"magFilter":9729,"minFilter":9987},{"magFilter":9729,"minFilter":9987},{"magFilter":9729,"minFilter":9987},{"magFilter":9729,"minFilter":9987}],"images":[{"mimeType":"image/png","uri":"material_2_baseColor.png"},{"mimeType":"image/png","uri":"wood_trims_baseColor.png"},{"mimeType":"image/png","uri":"wood_planks_baseColor.png"},{"mimeType":"image/png","uri":"wood_painted_baseColor.png"},{"mimeType":"image/png","uri":"sails_baseColor.png"},{"mimeType":"image/png","uri":"building_mats_baseColor.png"},{"mimeType":"image/png","uri":"emissive_baseColor.png"},{"mimeType":"image/png","uri":"foliage_baseColor.png"},{"mimeType":"image/png","uri":"foliage_02_baseColor.png"},{"mimeType":"image/png","uri":"sand_caustics_baseColor.png"},{"mimeType":"image/png","uri":"sand_tile_baseColor.png"},{"mimeType":"image/png","uri":"rock_tile_baseColor.png"},{"mimeType":"image/png","uri":"rocks_unique_baseColor.png"},{"mimeType":"image/png","uri":"water_light_baseColor.png"},{"mimeType":"image/png","uri":"bits_bobs_baseColor.png"},{"mimeType":"image/png","uri":"material_baseColor.png"}],"meshes":[{"primitives":[{"mode":4,"attributes":{"NORMAL":0,"POSITION":1,"TEXCOORD_0":2},"indices":3,"material":0}]},{"primitives":[{"mode":4,"attributes":{"NORMAL":4,"POSITION":5,"TEXCOORD_0":6},"indices":7,"material":1}]},{"primitives":[{"mode":4,"attributes":{"NORMAL":8,"POSITION":9,"TEXCOORD_0":10},"indices":11,"material":2}]},{"primitives":[{"mode":4,"attributes":{"NORMAL":12,"POSITION":13,"TEXCOORD_0":14},"indices":15,"material":3}]},{"primitives":[{"mode":4,"attributes":{"NORMAL":16,"POSITION":17,"TEXCOORD_0":18},"indices":19,"material":4}]},{"primitives":[{"mode":4,"attributes":{"NORMAL":20,"POSITION":21,"TEXCOORD_0":22},"indices":23,"material":5}]},{"primitives":[{"mode":4,"attributes":{"NORMAL":24,"POSITION":25,"TEXCOORD_0":26},"indices":27,"material":6}]},{"primitives":[{"mode":4,"attributes":{"NORMAL":28,"POSITION":29,"TEXCOORD_0":30},"indices":31,"material":7}]},{"primitives":[{"mode":4,"attributes":{"NORMAL":32,"POSITION":33,"TEXCOORD_0":34},"indices":35,"material":8}]},{"primitives":[{"mode":4,"attributes":{"NORMAL":36,"POSITION":37,"TEXCOORD_0":38},"indices":39,"material":9}]},{"primitives":[{"mode":4,"attributes":{"NORMAL":40,"POSITION":41,"TEXCOORD_0":42},"indices":43,"material":10}]},{"primitives":[{"mode":4,"attributes":{"NORMAL":44,"POSITION":45,"TEXCOORD_0":46},"indices":47,"material":11}]},{"primitives":[{"mode":4,"attributes":{"NORMAL":48,"POSITION":49,"TEXCOORD_0":50},"indices":51,"material":12}]},{"primitives":[{"mode":4,"attributes":{"NORMAL":52,"POSITION":53,"TEXCOORD_0":54},"indices":55,"material":13}]},{"primitives":[{"mode":4,"attributes":{"NORMAL":56,"POSITION":57,"TEXCOORD_0":58},"indices":59,"material":14}]},{"primitives":[{"mode":4,"attributes":{"NORMAL":60,"POSITION":61,"TEXCOORD_0":62},"indices":63,"material":15}]},{"primitives":[{"mode":4,"attributes":{"NORMAL":64,"POSITION":65,"TEXCOORD_0":66},"indices":67,"material":16}]}],"extensionsUsed":["HUBS_components","KHR_materials_unlit"]}